<svg width="141" height="123" viewBox="0 0 141 123" fill="none" xmlns="http://www.w3.org/2000/svg">
<path fill-rule="evenodd" clip-rule="evenodd" d="M136.501 5.88802C130.992 -0.677558 121.203 -1.53394 114.638 3.97522L70.2381 41.2309L25.8385 3.97524C19.2729 -1.53393 9.48441 -0.677542 3.97523 5.88803C-1.53394 12.4536 -0.677551 22.2421 5.88802 27.7513L46.0952 61.4891L5.88802 95.227C-0.677559 100.736 -1.53394 110.525 3.97523 117.09C9.4844 123.656 19.2729 124.512 25.8385 119.003L70.2381 81.7474L114.638 119.003C121.203 124.512 130.992 123.656 136.501 117.09C142.01 110.525 141.154 100.736 134.588 95.227L94.3809 61.4891L134.588 27.7513C141.154 22.2421 142.01 12.4536 136.501 5.88802Z" fill="white"/>
</svg>
